<svg xmlns="http://www.w3.org/2000/svg" width="29" height="29" viewBox="0 0 29 29">
  <g id="Group_13147" data-name="Group 13147" transform="translate(-676.063 -508.313)">
    <path id="Icon_ionic-ios-checkmark-circle" data-name="Icon ionic-ios-checkmark-circle" d="M17.375,3.375a14,14,0,1,0,14,14A14,14,0,0,0,17.375,3.375ZM24.543,13.5l-9,9.039h-.007a1.216,1.216,0,0,1-.781.37,1.178,1.178,0,0,1-.788-.384L10.2,18.762a.268.268,0,0,1,0-.384l1.2-1.2a.26.26,0,0,1,.377,0l2.988,2.988L22.975,11.9a.266.266,0,0,1,.188-.081h0a.244.244,0,0,1,.188.081l1.178,1.218A.265.265,0,0,1,24.543,13.5Z" transform="translate(673.188 505.438)" fill="#00c636" stroke="#fff" stroke-width="1"/>
    <path id="Path_1217" data-name="Path 1217" d="M6799.446,527.357l4.854,4.794,10.092-10.182-1.638-1.76-8.454,8.676-3.17-3.156Z" transform="translate(-6116.292 -3.359)" fill="#fff"/>
  </g>
</svg>
