<?xml version="1.0" ?><svg  xmlns="http://www.w3.org/2000/svg" xmlns:xlink="http://www.w3.org/1999/xlink" viewBox="0 0 24 24"><path fill="#fff" d="M12.003 2h-.006C6.484 2 2 6.486 2 12a9.93 9.93 0 0 0 1.904 5.862l-1.246 3.715 3.844-1.229a9.919 9.919 0 0 0 5.5 1.652C17.517 22 22 17.514 22 12S17.516 2 12.003 2Zm5.784 14.026c-.244.68-1.215 1.244-1.99 1.407-.53.112-1.22.2-3.549-.75-2.977-1.215-4.895-4.195-5.045-4.388C7.061 12.1 6 10.717 6 9.285c0-1.43.739-2.129 1.036-2.427.244-.247.65-.358 1.036-.358.125 0 .238.006.34.012.297.011.446.029.643.493.243.58.84 2.012.91 2.158.072.147.143.346.042.54-.096.2-.18.288-.328.457-.148.17-.291.3-.44.482-.137.158-.293.328-.12.622.173.287.769 1.243 1.644 2.011 1.131.991 2.048 1.308 2.376 1.443.244.1.536.076.714-.112.227-.24.506-.64.792-1.032.203-.282.459-.317.727-.217.273.093 1.72.797 2.019.944.297.147.494.217.566.34.074.123.074.704-.17 1.385Z"/></svg>