<svg width="20" height="21" viewBox="0 0 20 21" fill="none" xmlns="http://www.w3.org/2000/svg">
<path d="M9.1812 2.85709C9.21691 2.66592 9.31835 2.49327 9.46795 2.36902C9.61755 2.24477 9.8059 2.17676 10.0004 2.17676C10.1948 2.17676 10.3832 2.24477 10.5328 2.36902C10.6824 2.49327 10.7838 2.66592 10.8195 2.85709L11.6954 7.48875C11.7576 7.81804 11.9176 8.12093 12.1546 8.3579C12.3915 8.59486 12.6944 8.75488 13.0237 8.81709L17.6554 9.69292C17.8465 9.72863 18.0192 9.83006 18.1434 9.97967C18.2677 10.1293 18.3357 10.3176 18.3357 10.5121C18.3357 10.7066 18.2677 10.8949 18.1434 11.0445C18.0192 11.1941 17.8465 11.2955 17.6554 11.3313L13.0237 12.2071C12.6944 12.2693 12.3915 12.4293 12.1546 12.6663C11.9176 12.9032 11.7576 13.2061 11.6954 13.5354L10.8195 18.1671C10.7838 18.3583 10.6824 18.5309 10.5328 18.6552C10.3832 18.7794 10.1948 18.8474 10.0004 18.8474C9.8059 18.8474 9.61755 18.7794 9.46795 18.6552C9.31835 18.5309 9.21691 18.3583 9.1812 18.1671L8.30537 13.5354C8.24316 13.2061 8.08314 12.9032 7.84618 12.6663C7.60922 12.4293 7.30632 12.2693 6.97703 12.2071L2.34537 11.3313C2.1542 11.2955 1.98155 11.1941 1.8573 11.0445C1.73305 10.8949 1.66504 10.7066 1.66504 10.5121C1.66504 10.3176 1.73305 10.1293 1.8573 9.97967C1.98155 9.83006 2.1542 9.72863 2.34537 9.69292L6.97703 8.81709C7.30632 8.75488 7.60922 8.59486 7.84618 8.3579C8.08314 8.12093 8.24316 7.81804 8.30537 7.48875L9.1812 2.85709Z" stroke="#53EAFD" stroke-width="1.66667" stroke-linecap="round" stroke-linejoin="round"/>
<path d="M16.667 2.17871V5.51204" stroke="#53EAFD" stroke-width="1.66667" stroke-linecap="round" stroke-linejoin="round"/>
<path d="M18.3333 3.84473H15" stroke="#53EAFD" stroke-width="1.66667" stroke-linecap="round" stroke-linejoin="round"/>
<path d="M3.33366 18.8451C4.25413 18.8451 5.00033 18.0989 5.00033 17.1784C5.00033 16.2579 4.25413 15.5117 3.33366 15.5117C2.41318 15.5117 1.66699 16.2579 1.66699 17.1784C1.66699 18.0989 2.41318 18.8451 3.33366 18.8451Z" stroke="#53EAFD" stroke-width="1.66667" stroke-linecap="round" stroke-linejoin="round"/>
</svg>
