<svg width="131" height="150" viewBox="0 0 131 150" fill="none" xmlns="http://www.w3.org/2000/svg">
<path d="M45.9998 43.096C45.9998 43.096 44.8205 37.4522 37.7437 37.1152C37.7437 37.1152 40.1865 39.5036 40.355 42.6897C40.355 42.6897 32.2673 38.3243 29.4033 54.1467C29.4033 54.1467 32.0146 50.257 34.3732 49.1619C34.3732 49.1619 31.4309 65.1677 43.9801 70.8115C56.5292 76.4553 45.9988 43.096 45.9988 43.096H45.9998Z" fill="url(#paint0_linear_6283_21554)"/>
<path d="M43.5553 49.2334C43.5553 49.2334 36.5845 49.4742 36.9849 59.8492C36.9849 59.8492 38.3703 56.1239 40.2612 55.563C40.2612 55.563 39.5486 62.734 43.5543 66.0589C47.56 69.3838 43.5543 49.2334 43.5543 49.2334H43.5553Z" fill="url(#paint1_linear_6283_21554)"/>
<path d="M61.2484 29.6373C61.2484 29.6373 49.7329 28.6502 45.528 40.1866C41.3232 51.7229 41.7176 70.7047 44.4647 92.1244C47.2117 113.544 85.0416 132.027 85.0416 132.027C85.0416 132.027 90.7607 134.63 91.3513 140.028C91.3513 140.028 94.1341 135.22 90.8449 128.389C87.5557 121.557 94.6405 125.391 94.6405 125.391C94.6405 125.391 112.664 127.876 111.23 146.811L113.027 143.95C113.027 143.95 128.577 120.127 114.323 101.487C114.323 101.487 126.284 104.877 128.976 119.33C128.976 119.33 131.668 105.838 121.799 97.5819C111.931 89.3258 103.313 89.525 103.313 89.525C103.313 89.525 113.127 90.621 121.001 84.1428C121.001 84.1428 106.167 88.1276 97.0873 81.5999C88.0076 75.0721 80.6316 64.8052 80.6316 64.8052L61.2484 29.6383V29.6373Z" fill="url(#paint2_linear_6283_21554)"/>
<path d="M102.522 113.062C100.381 116.191 96.7565 120.886 96.7565 120.886L90.085 114.132L92.731 111.57L94.9429 109.429L101.047 109.276L103.988 109.202C103.988 109.202 104.663 109.931 102.522 113.062Z" fill="url(#paint3_linear_6283_21554)"/>
<path d="M102.455 111.658C102.455 111.658 100.151 114.545 92.731 111.57L94.9429 109.428L101.047 109.275L102.455 111.658Z" fill="url(#paint4_linear_6283_21554)"/>
<path d="M90.5629 111.123C90.5629 111.123 95.2267 117.742 99.0738 120.058L96.5675 123.132L87.7891 115.669L90.5629 111.123Z" fill="url(#paint5_linear_6283_21554)"/>
<path d="M71.9087 80.3898L74.6657 75.8559C74.6657 75.8559 81.0696 74.2862 84.7373 88.9551C88.405 103.624 91.5485 115.936 91.5485 115.936C91.5485 115.936 94.8347 120.892 98.1754 122.341C98.1754 122.341 84.1932 138.213 81.466 138.603C78.7387 138.992 75.397 130.694 75.397 130.694L71.9087 80.3898Z" fill="url(#paint6_linear_6283_21554)"/>
<path d="M81.7641 51.3221C81.7641 51.3221 80.9802 76.6365 96.437 83.8044C96.437 83.8044 88.7081 83.2445 84.2278 76.7475C84.2278 76.7475 88.3444 88.9567 103.312 92.9891C103.312 92.9891 82.765 97.0919 75.1353 67.1842L76.9964 42.6904L81.7641 51.3231V51.3221Z" fill="url(#paint7_linear_6283_21554)"/>
<path d="M72.4602 36.5695H72.4592C72.0628 36.9094 71.8755 37.2791 71.9141 37.6517C72.0023 38.502 73.2609 39.3701 75.8227 39.9588C79.7877 40.8665 89.7137 43.3639 98.9885 37.5764C100.011 36.9392 101.028 36.1999 102.026 35.3476C103.716 33.9047 104.99 32.3538 105.942 30.7681C108.918 25.821 108.744 20.5647 108.21 17.3618C107.897 15.4888 107.464 14.3174 107.464 14.3174C105.247 16.898 102.328 19.4023 99.1332 21.7361C87.9933 29.8812 73.4829 35.9571 73.4829 35.9571C73.0588 36.1454 72.7169 36.3515 72.4612 36.5695H72.4602Z" fill="url(#paint8_linear_6283_21554)"/>
<path d="M71.9136 37.6524C72.0018 38.5027 73.2604 39.3708 75.8221 39.9594C77.0391 40.2379 78.815 40.666 80.9635 40.9584C85.8164 41.6204 92.5583 41.5897 98.988 37.5771C100.011 36.9398 101.027 36.2005 102.025 35.3483C103.715 33.9054 104.989 32.3544 105.942 30.7688L103.693 26.4966C103.693 26.4966 98.2467 30.7649 89.499 34.0312C89.499 34.0312 89.498 34.0322 89.4951 34.0322C89.4891 34.0342 89.4792 34.0382 89.4624 34.0451C89.4396 34.054 89.4158 34.0649 89.389 34.0719C89.3534 34.0867 89.3177 34.1006 89.278 34.1135C89.2642 34.1174 89.2483 34.1234 89.2344 34.1303C84.3488 35.929 78.4532 37.4036 71.9166 37.6534H71.9136V37.6524Z" fill="url(#paint9_linear_6283_21554)"/>
<path d="M99.132 21.7366C100.767 24.3272 103.01 29.9195 98.9873 37.5771C100.01 36.9398 101.027 36.2006 102.025 35.3483C112.076 26.7631 107.462 14.3179 107.462 14.3179C105.246 16.8985 102.327 19.4028 99.132 21.7366Z" fill="url(#paint10_linear_6283_21554)"/>
<path opacity="0.4" d="M72.46 36.569C89.0465 32.9925 104.155 20.8308 108.209 17.3623C107.895 15.4892 107.462 14.3179 107.462 14.3179C105.246 16.8985 102.327 19.4027 99.132 21.7366C87.9921 29.8817 73.4817 35.9576 73.4817 35.9576C73.0575 36.1458 72.7156 36.352 72.46 36.57V36.569Z" fill="#FFC380"/>
<path d="M71.9136 37.6525C72.0018 38.5027 73.2604 39.3709 75.8222 39.9595C77.0391 40.238 78.815 40.6661 80.9636 40.9585C82.5839 36.9022 87.975 34.616 89.2356 34.1304C84.3499 35.9291 78.4543 37.4037 71.9175 37.6534H71.9146L71.9136 37.6525Z" fill="url(#paint11_linear_6283_21554)"/>
<path d="M43.9812 46.3243C43.9812 46.3243 40.5196 46.2648 40.6454 49.6779C40.7713 53.091 43.9812 52.6817 43.9812 52.6817V46.3243Z" fill="url(#paint12_linear_6283_21554)"/>
<path d="M47.3796 44.5811C47.3796 44.5811 43.1469 43.6238 42.8794 48.7949C42.6118 53.9661 44.3292 54.7668 45.7028 54.8431C47.0763 54.9194 47.3796 44.5811 47.3796 44.5811Z" fill="url(#paint13_linear_6283_21554)"/>
<path d="M50.2069 41.9326C50.2069 41.9326 45.4143 42.3944 44.8435 48.7954C44.2727 55.1974 45.8137 57.669 48.4379 58.3161C51.0621 58.9633 50.2069 41.9326 50.2069 41.9326Z" fill="url(#paint14_linear_6283_21554)"/>
<path d="M68.9398 77.1532L44.4639 79.818C44.4639 79.818 28.1529 86.4954 28.029 93.7823C27.9051 101.069 45.1556 131.78 45.8087 134.655C46.4618 137.529 38.3593 149.292 38.3593 149.292L86.7185 147.854C86.7185 147.854 80.8319 136.223 80.8319 130.603C80.8319 124.983 82.2907 118.753 82.2907 118.753L84.2341 93.7823C84.2341 93.7823 80.9786 90.4307 80.0907 86.7798C79.2027 83.129 76.8352 76.9698 74.6639 75.8569H69.8278L68.9389 77.1542L68.9398 77.1532Z" fill="url(#paint15_linear_6283_21554)"/>
<path d="M48.6078 77.5585L46.3364 78.8905C46.3364 78.8905 45.2492 78.8211 44.4644 79.817L48.3927 93.1778L52.7403 93.5931L46.7585 101.882L66.885 120.057L78.0299 93.7814L74.6188 89.9333L76.4333 86.4776L69.8283 75.856C69.8283 75.856 68.5915 75.7351 67.2457 75.856C65.8999 75.9769 48.6078 77.5595 48.6078 77.5595V77.5585Z" fill="url(#paint16_linear_6283_21554)"/>
<path d="M54.0421 78.4653L67.2473 75.855C67.2473 75.855 72.6413 89.6915 72.6413 100.092C72.6413 110.493 60.5104 96.8951 60.5104 96.8951L50.52 84.7394L54.0431 78.4663L54.0421 78.4653Z" fill="url(#paint17_linear_6283_21554)"/>
<path d="M64.0289 90.7983L63.2292 92.6605L62.8833 108.964L66.8008 114.499L70.8887 105.217L66.8414 92.0312L64.0289 90.7983Z" fill="url(#paint18_linear_6283_21554)"/>
<path d="M67.4794 85.2339L66.8412 92.0303C66.8412 92.0303 65.6015 92.7766 63.229 92.6606L59.6504 88.1099L62.2776 82.4858L63.6373 80.9131L67.4794 85.2349V85.2339Z" fill="url(#paint19_linear_6283_21554)"/>
<path d="M52.4882 73.0357C52.4882 73.0357 48.5816 74.4023 46.3369 78.8906C46.3369 78.8906 52.0947 90.3081 57.6563 92.4547C63.2189 94.6012 59.9624 91.2833 59.9624 91.2833L63.4538 82.8329L68.1126 88.3578C68.1126 88.3578 68.3296 80.0888 67.2454 75.8541C67.2454 75.8541 65.9452 74.0574 63.8333 73.8404C61.7205 73.6233 52.4872 73.0337 52.4872 73.0337L52.4882 73.0357Z" fill="url(#paint20_linear_6283_21554)"/>
<path d="M65.4394 77.8369L63.3385 81.4254L56.4251 78.4493L52.4878 63.5781L54.2895 64.2441L54.2924 64.2461L59.5755 66.1994L59.9571 66.574L64.9578 71.4934C64.9578 71.4934 64.5891 73.5755 64.935 75.8578C65.0351 76.5169 65.1936 77.1908 65.4394 77.8379V77.8369Z" fill="url(#paint21_linear_6283_21554)"/>
<path d="M64.9351 75.8554C59.2982 75.6959 54.2896 68.3623 54.2896 68.3623V64.2427L54.2925 64.2447L59.9562 66.5726L64.9569 71.492C64.9569 71.492 64.5882 73.5741 64.9341 75.8564L64.9351 75.8554Z" fill="url(#paint22_linear_6283_21554)"/>
<path d="M87.2735 57.3889C86.8731 51.1426 82.1827 44.9884 82.1093 44.8923C85.5422 54.5804 79.06 59.8198 79.06 59.8198C80.1789 57.3661 79.6417 54.7895 79.6417 54.7895L69.4551 57.9756L55.1569 67.403C59.8909 87.1578 72.338 89.0744 72.338 89.0744C63.6468 90.8127 57.345 82.5021 57.345 82.5021C58.2151 87.5532 63.6548 95.8648 63.6548 95.8648C63.6548 95.8648 70.7474 107.344 63.081 101.073C55.4145 94.8015 49.0463 84.3483 47.5528 61.4996C46.0594 38.6519 54.6207 34.1765 54.6207 34.1765L58.0873 32.7742L68.1569 28.7021C70.8277 29.384 73.1387 30.2838 75.1356 31.3442C90.628 39.5666 87.2735 57.3899 87.2735 57.3899V57.3889Z" fill="url(#paint23_linear_6283_21554)"/>
<path d="M54.6538 50.4105C54.6538 50.4105 54.7192 45.6992 56.2246 42.6885C56.2246 42.6885 54.7519 53.4698 66.4985 43.2117C66.4985 43.2117 63.6186 48.7248 54.6538 50.4105Z" fill="url(#paint24_linear_6283_21554)"/>
<path d="M75.1368 31.3422C61.538 43.722 53.3057 41.8282 53.3057 41.8282L58.0893 32.7733L68.159 28.7012C70.8298 29.383 73.1409 30.2828 75.1378 31.3432L75.1368 31.3422Z" fill="url(#paint25_linear_6283_21554)"/>
<path d="M73.0534 41.5945C73.0534 41.5945 73.2774 48.488 66.2273 52.5095C66.2273 52.5095 69.6503 50.9189 69.9595 41.2407C69.9595 41.2407 66.7774 50.1667 54.4928 51.2717C54.4928 51.2717 53.1232 60.5069 55.1558 67.4014C55.1558 67.4014 58.5847 72.5001 67.6177 72.3505C76.9778 72.1949 78.1442 62.5127 77.2949 60.6883C77.2949 60.6883 79.2175 57.7529 79.6407 54.7868C79.6407 54.7868 77.3633 45.8479 73.0524 41.5945H73.0534Z" fill="url(#paint26_linear_6283_21554)"/>
<path d="M61.1809 50.9052C60.5328 50.7407 59.8579 50.9081 59.2613 51.3194L58.2584 49.7705C58.194 49.6704 58.0612 49.6426 57.9611 49.707C57.861 49.7714 57.8332 49.9052 57.8976 50.0043L58.9224 51.587C58.6518 51.8288 58.404 52.1241 58.191 52.4621L57.1782 51.804C57.0791 51.7396 56.9453 51.7674 56.8809 51.8674C56.8164 51.9666 56.8442 52.1003 56.9443 52.1648L57.9779 52.8367C57.8114 53.1637 57.6757 53.5215 57.5785 53.903C57.0652 55.9326 57.8451 57.88 59.3207 58.2536C60.7964 58.6272 62.4097 57.2844 62.9231 55.2557C63.4364 53.2261 62.6565 51.2788 61.1809 50.9052Z" fill="url(#paint27_linear_6283_21554)"/>
<path d="M59.7972 53.9938C60.309 53.9938 60.7238 53.579 60.7238 53.0672C60.7238 52.5555 60.309 52.1406 59.7972 52.1406C59.2855 52.1406 58.8706 52.5555 58.8706 53.0672C58.8706 53.579 59.2855 53.9938 59.7972 53.9938Z" fill="white"/>
<path d="M76.982 56.8579C76.9384 56.7479 76.8136 56.6934 76.7026 56.737L75.4876 57.2167C75.3766 56.411 75.0069 55.7777 74.4054 55.5121C73.2152 54.9859 71.5711 56.0949 70.7327 57.9907C69.8943 59.8855 70.1797 61.8487 71.3689 62.3749C72.5591 62.9012 74.2032 61.7922 75.0416 59.8964C75.2012 59.5347 75.3201 59.171 75.4004 58.8152L76.2516 59.2473C76.2834 59.2631 76.3161 59.2711 76.3488 59.2711C76.4271 59.2711 76.5024 59.2285 76.541 59.1531C76.5945 59.0471 76.5529 58.9183 76.4469 58.8638L75.4796 58.3722C75.5124 58.1294 75.5272 57.8926 75.5223 57.6646L76.8601 57.1364C76.9701 57.0928 77.0246 56.9679 76.981 56.8569L76.982 56.8579Z" fill="url(#paint28_linear_6283_21554)"/>
<path d="M72.8368 58.3166C73.3485 58.3166 73.7634 57.9017 73.7634 57.39C73.7634 56.8782 73.3485 56.4634 72.8368 56.4634C72.325 56.4634 71.9102 56.8782 71.9102 57.39C71.9102 57.9017 72.325 58.3166 72.8368 58.3166Z" fill="white"/>
<path d="M66.6723 63.577C66.6723 63.577 65.8964 62.9774 66.0371 61.9725C66.1778 60.9676 68.3977 61.7396 68.1361 62.6712C67.925 63.4214 66.6713 63.577 66.6713 63.577H66.6723Z" fill="url(#paint29_linear_6283_21554)"/>
<path d="M65.67 67.1834C63.8525 67.1834 62.6207 66.5125 61.8734 65.9001C60.928 65.1241 60.5435 64.2867 60.5276 64.252C60.4791 64.144 60.5276 64.0162 60.6357 63.9676C60.7437 63.919 60.8715 63.9676 60.9201 64.0746C60.927 64.0895 61.2917 64.8714 62.1628 65.581C63.3312 66.5314 64.8098 66.9079 66.561 66.6998C66.6789 66.686 66.7859 66.7702 66.7998 66.8881C66.8137 67.0061 66.7294 67.1131 66.6115 67.127C66.2825 67.1666 65.9683 67.1844 65.671 67.1844L65.67 67.1834Z" fill="url(#paint30_linear_6283_21554)"/>
<path d="M52.2992 40.5396V40.5416C52.2248 41.0579 52.3289 41.4593 52.6044 41.713C53.2327 42.2927 54.7509 42.1134 57.062 40.8617C60.6385 38.9233 69.738 34.2388 72.8755 23.7668C73.2224 22.6123 73.4969 21.3864 73.6832 20.0872C73.9973 17.8871 73.9299 15.8813 73.597 14.0618C72.5623 8.38138 68.958 4.55212 66.4399 2.50172C64.9672 1.3026 63.8682 0.708984 63.8682 0.708984C63.9088 4.11112 63.3737 7.91858 62.5175 11.7815C59.5385 25.2553 52.6609 39.4049 52.6609 39.4049C52.4667 39.8271 52.3467 40.2067 52.2992 40.5396Z" fill="url(#paint31_linear_6283_21554)"/>
<path d="M52.6045 41.7138C53.2328 42.2936 54.751 42.1142 57.0621 40.8625C58.1591 40.2669 59.7754 39.4147 61.5811 38.2156C65.661 35.5061 70.7013 31.0278 72.8756 23.7676C73.2224 22.6131 73.497 21.3872 73.6833 20.088C73.9974 17.888 73.93 15.8822 73.5971 14.0627L69.086 12.3423C69.086 12.3423 67.8185 19.1446 63.4105 27.3769C63.4105 27.3769 63.4105 27.3789 63.4085 27.3809C63.4055 27.3858 63.4005 27.3957 63.3926 27.4116C63.3817 27.4334 63.3708 27.4572 63.356 27.48C63.3391 27.5146 63.3213 27.5483 63.3005 27.584C63.2925 27.5969 63.2846 27.6108 63.2787 27.6256C60.8001 32.2041 57.3494 37.2057 52.6075 41.7128L52.6055 41.7148L52.6045 41.7138Z" fill="url(#paint32_linear_6283_21554)"/>
<path d="M62.5171 11.7816C65.4565 12.6458 70.8347 15.3612 72.8752 23.767C73.2221 22.6125 73.4966 21.3866 73.6829 20.0874C75.5539 7.00195 63.8678 0.708984 63.8678 0.708984C63.9085 4.11115 63.3733 7.91864 62.5171 11.7816Z" fill="url(#paint33_linear_6283_21554)"/>
<path opacity="0.4" d="M52.2988 40.5396C62.3853 26.8954 65.6903 7.78281 66.4395 2.50172C64.9669 1.3026 63.8679 0.708984 63.8679 0.708984C63.9085 4.11112 63.3734 7.91858 62.5171 11.7815C59.5382 25.2553 52.6605 39.4049 52.6605 39.4049C52.4663 39.8271 52.3464 40.2066 52.2988 40.5396Z" fill="#FFC380"/>
<path d="M52.6045 41.7143C53.2328 42.2941 54.751 42.1147 57.0621 40.863C58.1591 40.2674 59.7755 39.4151 61.5811 38.216C60.1164 34.1013 62.6534 28.8231 63.2778 27.625C60.7992 32.2035 57.3485 37.2052 52.6065 41.7123L52.6045 41.7143Z" fill="url(#paint34_linear_6283_21554)"/>
<path d="M22.7134 127.922C22.7134 127.922 24.0542 137.094 32.7969 138.112C41.5396 139.131 43.256 122.88 43.256 122.88L47.3796 97.9139C47.3796 97.9139 45.9367 86.3132 35.7154 86.7938C25.4942 87.2745 27.4088 102.946 27.4088 102.946L22.7134 127.923V127.922Z" fill="url(#paint35_linear_6283_21554)"/>
<path d="M21.5 124.541C21.5 124.541 21.7993 131.696 28.5362 132.021C35.2732 132.346 41.5919 118.751 41.5919 118.751L21.499 124.54L21.5 124.541Z" fill="url(#paint36_linear_6283_21554)"/>
<path d="M21.5 117.18C21.5 117.18 21.9549 113.601 22.2572 110.816C22.5604 108.031 22.9092 106.094 24.9567 107.037C27.0041 107.981 27.4085 113.889 27.4085 113.889V119.343L22.0044 118.749L21.499 117.18H21.5Z" fill="url(#paint37_linear_6283_21554)"/>
<path d="M89.2792 90.7895L23.9551 98.9492L28.1459 132.5L93.47 124.34L89.2792 90.7895Z" fill="url(#paint38_linear_6283_21554)"/>
<path d="M89.2797 90.7895L23.9556 98.9492L24.263 101.411L89.5871 93.2509L89.2797 90.7895Z" fill="url(#paint39_linear_6283_21554)"/>
<path d="M93.1747 122.024L27.8506 130.184L28.158 132.645L93.4822 124.485L93.1747 122.024Z" fill="url(#paint40_linear_6283_21554)"/>
<path d="M27.7326 129.276C27.7326 129.276 19.9036 130.263 20.2921 118.066C20.2921 118.066 19.7262 116.934 20.0096 115.026C20.2931 113.117 25.1719 110.819 26.1966 110.819C27.2213 110.819 34.0633 112.898 34.207 114.136C34.3507 115.374 31.0496 114.889 26.9597 114.548C26.9597 114.548 24.5743 115.839 23.1928 116.88C23.1928 116.88 25.8616 115.844 27.7108 115.47C29.5601 115.095 32.7561 115.018 34.2119 115.655C35.6677 116.292 34.3933 117.304 33.8879 117.416C33.8879 117.416 35.3694 118.108 34.1396 119.178C33.1317 120.055 30.1963 120.843 30.1963 120.843C30.1963 120.843 32.3805 120.714 32.4747 121.595C32.5688 122.476 30.342 123.57 27.139 124.51L27.7336 129.275L27.7326 129.276Z" fill="url(#paint41_linear_6283_21554)"/>
<path d="M24.715 118.751C24.6595 118.751 24.608 118.715 24.5911 118.659C24.5713 118.591 24.61 118.519 24.6783 118.499C30.7979 116.681 33.7888 117.265 33.9136 117.291C33.983 117.305 34.0286 117.373 34.0137 117.443C33.9989 117.513 33.9305 117.558 33.8611 117.543C33.8314 117.537 30.7999 116.951 24.7517 118.746C24.7398 118.75 24.7269 118.751 24.715 118.751Z" fill="url(#paint42_linear_6283_21554)"/>
<path d="M25.4875 122.038C25.4379 122.038 25.3913 122.009 25.3695 121.962C25.3408 121.896 25.3695 121.82 25.4349 121.791C26.2723 121.419 30.0144 120.746 30.173 120.718C30.2424 120.705 30.3098 120.752 30.3226 120.822C30.3355 120.892 30.2889 120.959 30.2186 120.972C30.1799 120.979 26.3486 121.667 25.54 122.027C25.5231 122.035 25.5053 122.038 25.4875 122.038Z" fill="url(#paint43_linear_6283_21554)"/>
<path d="M94.9427 109.426C94.9427 109.426 93.3293 106.898 92.5226 103.886C92.5226 103.886 88.1205 104.559 85.8342 104.218C83.5479 103.877 83.3091 102.648 86.1414 102.102C88.9738 101.556 90.271 101.181 90.271 101.181C90.271 101.181 84.5717 100.464 82.4221 98.7577C80.2726 97.0512 82.4221 96.6766 82.4221 96.6766C82.4221 96.6766 80.784 95.0385 83.7868 95.1752C83.7868 95.1752 82.1833 93.5371 85.7658 93.8106C89.3494 94.0831 91.8061 94.1515 93.2738 94.5618C94.7415 94.9721 97.9484 96.746 98.5629 97.5646C99.1773 98.3831 103.818 107.359 103.989 109.201C104.159 111.043 101.629 116.034 94.9427 109.427V109.426Z" fill="url(#paint44_linear_6283_21554)"/>
<path d="M91.0189 98.6105C91.01 98.6105 91.0011 98.6105 90.9922 98.6075L82.3961 96.8019C82.3267 96.787 82.2821 96.7187 82.296 96.6493C82.3099 96.5799 82.3792 96.5343 82.4486 96.5492L91.0447 98.3548C91.1141 98.3697 91.1587 98.4381 91.1448 98.5075C91.1319 98.5679 91.0784 98.6105 91.0189 98.6105Z" fill="url(#paint45_linear_6283_21554)"/>
<path d="M91.7932 96.3479C91.7873 96.3479 91.7823 96.3479 91.7764 96.3469L83.77 95.3023C83.6996 95.2934 83.649 95.228 83.659 95.1576C83.6679 95.0873 83.7333 95.0367 83.8037 95.0467L91.8101 96.0912C91.8804 96.1001 91.931 96.1655 91.9211 96.2359C91.9122 96.3013 91.8567 96.3479 91.7932 96.3479Z" fill="url(#paint46_linear_6283_21554)"/>
<path d="M9.32986 61.6984C-0.593115 61.7549 -2.65541 72.9404 5.33312 77.0204C13.3216 81.1014 27.2057 74.2079 27.2057 74.2079C27.2057 74.2079 28.9271 58.8027 22.3577 52.6951C15.7883 46.5875 5.98521 52.3561 9.33085 61.6984H9.32986Z" fill="url(#paint47_linear_6283_21554)"/>
<path d="M120.178 52.1405C125.58 40.6795 113.833 32.1409 104.732 39.0938C95.6301 46.0468 95.9205 65.8372 95.9205 65.8372C95.9205 65.8372 112.716 76.3072 123.371 72.1054C134.027 67.9035 132.783 53.4337 120.178 52.1395V52.1405Z" fill="url(#paint48_linear_6283_21554)"/>
<path d="M37.812 114.143C37.7147 114.154 37.6314 114.133 37.5621 114.078C37.4917 114.015 37.4513 113.939 37.4408 113.85L36.4152 105.223C36.4036 105.126 36.4251 105.043 36.4797 104.973C36.5342 104.904 36.6102 104.864 36.7075 104.852L42.9058 104.115C43.0031 104.104 43.0864 104.125 43.1557 104.18C43.225 104.234 43.2655 104.31 43.277 104.408L43.4254 105.655C43.4369 105.752 43.4154 105.836 43.3609 105.905C43.3063 105.974 43.2303 106.015 43.133 106.026L38.8991 106.53L39.1121 108.322L43.054 107.853C43.1513 107.841 43.2352 107.867 43.3055 107.931C43.3748 107.985 43.4153 108.061 43.4269 108.159L43.5641 109.313C43.5746 109.402 43.5531 109.485 43.4996 109.563C43.445 109.632 43.3691 109.673 43.2718 109.684L39.3298 110.153L39.5492 111.998L43.8893 111.482C43.9866 111.47 44.0699 111.492 44.1392 111.547C44.2085 111.601 44.2489 111.677 44.2605 111.774L44.4088 113.022C44.4194 113.11 44.3979 113.194 44.3443 113.272C44.2898 113.341 44.2138 113.382 44.1165 113.393L37.812 114.143ZM46.2888 113.135C46.1915 113.147 46.1082 113.125 46.0389 113.071C45.9685 113.007 45.9281 112.931 45.9175 112.843L44.8919 104.216C44.8804 104.118 44.9019 104.035 44.9564 103.966C45.011 103.896 45.087 103.856 45.1843 103.844L46.5912 103.677C46.7416 103.659 46.852 103.682 46.9223 103.745C47.0005 103.799 47.0505 103.842 47.0724 103.876L50.9168 108.587L50.3204 103.57C50.3088 103.473 50.3303 103.39 50.3849 103.32C50.4395 103.251 50.5154 103.211 50.6127 103.199L52.2054 103.01C52.3028 102.998 52.3861 103.02 52.4554 103.074C52.5247 103.129 52.5651 103.205 52.5767 103.302L53.6007 111.916C53.6123 112.013 53.5913 112.101 53.5378 112.179C53.4832 112.248 53.4073 112.289 53.3099 112.3L51.8898 112.469C51.7482 112.486 51.6378 112.463 51.5586 112.401C51.4883 112.337 51.4427 112.293 51.4218 112.269L47.5995 107.743L48.1739 112.574C48.1844 112.663 48.1629 112.746 48.1094 112.824C48.0548 112.894 47.9788 112.934 47.8815 112.946L46.2888 113.135ZM58.7243 111.791C58.22 111.851 57.7304 111.847 57.2555 111.777C56.7885 111.698 56.3627 111.552 55.9783 111.337C55.5939 111.123 55.2728 110.838 55.0153 110.482C54.7665 110.126 54.6033 109.697 54.5257 109.195C54.5162 109.115 54.5348 109.045 54.5816 108.986C54.6273 108.918 54.6945 108.878 54.7829 108.868L56.5747 108.655C56.6986 108.64 56.7952 108.66 56.8645 108.715C56.9426 108.768 57.0112 108.854 57.0702 108.973C57.1527 109.214 57.261 109.408 57.3949 109.553C57.5367 109.689 57.7052 109.786 57.9005 109.843C58.1036 109.891 58.3246 109.901 58.5635 109.872C59.0059 109.82 59.3297 109.637 59.535 109.326C59.7391 109.006 59.8081 108.567 59.7418 108.009L59.2858 104.173L54.9855 104.685C54.8971 104.695 54.8137 104.674 54.7356 104.62C54.6663 104.566 54.6259 104.49 54.6143 104.392L54.4581 103.078C54.4465 102.981 54.468 102.898 54.5226 102.828C54.586 102.758 54.662 102.718 54.7504 102.707L61.1743 101.943C61.2717 101.932 61.355 101.953 61.4243 102.008C61.5024 102.061 61.5473 102.137 61.5589 102.234L62.2184 107.782C62.3099 108.552 62.2191 109.222 61.946 109.793C61.6807 110.354 61.2679 110.807 60.7077 111.152C60.1552 111.487 59.4941 111.7 58.7243 111.791ZM68.2128 110.663C67.3987 110.76 66.6751 110.711 66.0419 110.518C65.4086 110.324 64.8923 109.981 64.493 109.49C64.0926 108.99 63.8268 108.34 63.6957 107.539C63.6416 107.16 63.5919 106.78 63.5467 106.399C63.5004 106.01 63.4591 105.624 63.4227 105.243C63.3634 104.442 63.4698 103.752 63.7419 103.173C64.0218 102.583 64.4462 102.115 65.0153 101.769C65.5932 101.423 66.2804 101.202 67.0767 101.107C67.8819 101.011 68.6017 101.065 69.236 101.268C69.8703 101.47 70.3926 101.826 70.8029 102.333C71.2121 102.832 71.4773 103.478 71.5986 104.271C71.6615 104.649 71.7161 105.033 71.7624 105.423C71.8076 105.803 71.844 106.185 71.8715 106.567C71.9407 107.375 71.8348 108.07 71.5539 108.651C71.2808 109.222 70.8592 109.676 70.2891 110.013C69.7189 110.35 69.0268 110.566 68.2128 110.663ZM67.9856 108.752C68.4545 108.696 68.8182 108.509 69.0765 108.192C69.3437 107.873 69.4493 107.402 69.3934 106.781C69.3648 106.39 69.33 106.021 69.289 105.676C69.2479 105.331 69.1965 104.974 69.1346 104.604C69.0675 104.191 68.9479 103.864 68.7758 103.624C68.6115 103.374 68.4026 103.202 68.1489 103.106C67.8953 103.011 67.6136 102.981 67.3039 103.018C67.0031 103.054 66.7406 103.148 66.5164 103.3C66.2922 103.453 66.1251 103.67 66.0151 103.952C65.904 104.226 65.8644 104.571 65.8961 104.989C65.9315 105.362 65.9696 105.721 66.0107 106.066C66.0517 106.411 66.0998 106.778 66.1549 107.166C66.2551 107.782 66.468 108.215 66.7937 108.463C67.1282 108.71 67.5255 108.807 67.9856 108.752ZM76.1431 109.586C76.0546 109.596 75.9713 109.575 75.8931 109.521C75.8228 109.458 75.7823 109.382 75.7718 109.294L75.4326 106.44L71.678 101.125C71.666 101.1 71.6546 101.079 71.6436 101.062C71.6316 101.037 71.624 101.011 71.6209 100.984C71.6125 100.913 71.6316 100.848 71.6784 100.789C71.733 100.72 71.8001 100.68 71.8797 100.671L73.5388 100.473C73.6715 100.458 73.7775 100.481 73.8567 100.543C73.9437 100.596 74.0036 100.647 74.0365 100.697L76.3415 103.896L77.8457 100.244C77.8659 100.188 77.9077 100.125 77.9711 100.054C78.0424 99.9739 78.1443 99.9259 78.2771 99.9101L79.9361 99.7129C80.0158 99.7034 80.0858 99.7265 80.1463 99.7821C80.2057 99.8289 80.2396 99.8877 80.248 99.9585C80.2511 99.985 80.2499 100.012 80.2442 100.04C80.2463 100.057 80.2445 100.08 80.2388 100.108L77.8349 106.154L78.1741 109.008C78.1847 109.096 78.1587 109.18 78.0964 109.259C78.0418 109.329 77.9658 109.369 77.8685 109.381L76.1431 109.586ZM39.3148 123.027C39.2598 123.034 39.2127 123.022 39.1736 122.991C39.1338 122.955 39.111 122.912 39.1051 122.862L38.5256 117.988C38.5191 117.933 38.5312 117.886 38.5621 117.847C38.5929 117.808 38.6358 117.785 38.6908 117.779L42.14 117.369C42.195 117.362 42.2421 117.374 42.2813 117.405C42.3204 117.436 42.3433 117.479 42.3498 117.534L42.4398 118.291C42.4464 118.346 42.4342 118.393 42.4034 118.432C42.3725 118.471 42.3296 118.494 42.2747 118.501L39.9577 118.776L40.0887 119.879L42.2557 119.621C42.3107 119.614 42.3581 119.629 42.3978 119.665C42.437 119.696 42.4598 119.739 42.4664 119.794L42.5555 120.543C42.5614 120.593 42.5493 120.64 42.5191 120.685C42.4882 120.724 42.4453 120.747 42.3903 120.753L40.2233 121.011L40.4248 122.705C40.4307 122.755 40.4186 122.802 40.3883 122.847C40.3575 122.886 40.3146 122.909 40.2596 122.915L39.3148 123.027ZM43.95 122.476C43.895 122.483 43.848 122.471 43.8088 122.44C43.7691 122.404 43.7462 122.361 43.7403 122.311L43.1608 117.437C43.1543 117.382 43.1665 117.335 43.1973 117.296C43.2281 117.257 43.271 117.234 43.326 117.228L45.3656 116.985C46.0154 116.908 46.5431 116.997 46.9487 117.253C47.3537 117.504 47.5886 117.902 47.6534 118.447C47.6956 118.802 47.6462 119.112 47.5054 119.377C47.3645 119.642 47.1616 119.854 46.8965 120.012L48.1431 121.735C48.1616 121.763 48.1724 121.789 48.1754 121.814C48.1801 121.854 48.1671 121.894 48.1363 121.933C48.1098 121.967 48.0766 121.986 48.0366 121.991L47.0393 122.109C46.9444 122.12 46.8717 122.106 46.8214 122.067C46.7704 122.022 46.7326 121.981 46.7078 121.943L45.6569 120.395L44.8921 120.486L45.09 122.151C45.0959 122.201 45.0813 122.248 45.046 122.293C45.0152 122.332 44.9723 122.355 44.9173 122.361L43.95 122.476ZM44.7655 119.421L45.6278 119.319C45.8628 119.291 46.0309 119.213 46.1322 119.084C46.2385 118.955 46.2801 118.793 46.2569 118.598C46.2337 118.403 46.1575 118.252 46.0283 118.146C45.904 118.039 45.7194 118 45.4745 118.029L44.6122 118.132L44.7655 119.421ZM49.1344 121.86C49.0794 121.867 49.0324 121.854 48.9932 121.824C48.9535 121.788 48.9306 121.745 48.9247 121.695L48.3453 116.821C48.3387 116.766 48.3509 116.719 48.3817 116.68C48.4125 116.641 48.4554 116.618 48.5104 116.611L52.0122 116.195C52.0672 116.188 52.1142 116.201 52.1534 116.231C52.1925 116.262 52.2154 116.305 52.2219 116.36L52.3057 117.065C52.3122 117.12 52.3001 117.167 52.2693 117.206C52.2384 117.245 52.1955 117.268 52.1405 117.275L49.7486 117.559L49.8689 118.571L52.0959 118.307C52.1509 118.3 52.1983 118.315 52.238 118.351C52.2772 118.381 52.3 118.424 52.3065 118.479L52.3841 119.132C52.39 119.182 52.3779 119.229 52.3477 119.273C52.3168 119.312 52.2739 119.335 52.2189 119.341L49.9919 119.606L50.1158 120.648L52.5678 120.357C52.6228 120.35 52.6698 120.363 52.709 120.393C52.7482 120.424 52.771 120.467 52.7775 120.522L52.8613 121.227C52.8673 121.277 52.8551 121.324 52.8249 121.368C52.7941 121.407 52.7511 121.43 52.6962 121.437L49.1344 121.86ZM53.9234 121.291C53.8684 121.297 53.8214 121.285 53.7822 121.254C53.7425 121.218 53.7196 121.176 53.7137 121.126L53.1343 116.252C53.1277 116.197 53.1399 116.15 53.1707 116.11C53.2015 116.071 53.2444 116.048 53.2994 116.042L56.8012 115.626C56.8562 115.619 56.9032 115.631 56.9424 115.662C56.9815 115.693 57.0044 115.736 57.0109 115.791L57.0947 116.496C57.1012 116.551 57.0891 116.598 57.0583 116.637C57.0274 116.676 56.9845 116.699 56.9295 116.705L54.5376 116.99L54.6579 118.002L56.8849 117.737C56.9399 117.731 56.9873 117.745 57.027 117.781C57.0662 117.812 57.089 117.855 57.0955 117.91L57.1731 118.562C57.179 118.612 57.1669 118.659 57.1367 118.704C57.1058 118.743 57.0629 118.766 57.0079 118.772L54.7809 119.037L54.9048 120.079L57.3568 119.788C57.4118 119.781 57.4588 119.793 57.498 119.824C57.5371 119.855 57.56 119.898 57.5665 119.953L57.6503 120.658C57.6563 120.708 57.6441 120.755 57.6139 120.799C57.583 120.838 57.5401 120.861 57.4851 120.867L53.9234 121.291ZM61.2878 120.415C61.2328 120.422 61.1857 120.41 61.1465 120.379C61.1068 120.343 61.084 120.3 61.078 120.25L60.6163 116.366L59.2815 116.525C59.2266 116.531 59.1795 116.519 59.1403 116.488C59.1006 116.452 59.0777 116.409 59.0718 116.359L58.9764 115.557C58.9699 115.502 58.982 115.455 59.0129 115.416C59.0437 115.377 59.0866 115.354 59.1416 115.347L63.1757 114.868C63.2307 114.861 63.2778 114.873 63.3169 114.904C63.3561 114.935 63.3789 114.978 63.3855 115.033L63.4808 115.835C63.4868 115.885 63.4746 115.932 63.4444 115.977C63.4136 116.016 63.3707 116.039 63.3157 116.045L61.981 116.204L62.4427 120.088C62.4487 120.138 62.4365 120.185 62.4063 120.229C62.3754 120.268 62.3325 120.291 62.2775 120.298L61.2878 120.415ZM64.8561 119.991C64.8011 119.998 64.754 119.985 64.7149 119.955C64.6751 119.919 64.6523 119.876 64.6464 119.826L64.0669 114.952C64.0604 114.897 64.0725 114.85 64.1034 114.811C64.1342 114.772 64.1771 114.749 64.2321 114.742L66.2717 114.5C66.9215 114.422 67.4492 114.512 67.8548 114.768C68.2598 115.019 68.4947 115.417 68.5594 115.962C68.6016 116.316 68.5523 116.627 68.4115 116.892C68.2706 117.157 68.0677 117.369 67.8026 117.527L69.0492 119.249C69.0677 119.277 69.0785 119.304 69.0815 119.329C69.0862 119.369 69.0732 119.409 69.0423 119.448C69.0159 119.481 68.9827 119.5 68.9427 119.505L67.9454 119.624C67.8504 119.635 67.7778 119.621 67.7274 119.581C67.6765 119.537 67.6387 119.496 67.6139 119.458L66.563 117.91L65.7982 118.001L65.9961 119.665C66.002 119.715 65.9874 119.763 65.9521 119.808C65.9213 119.847 65.8784 119.87 65.8234 119.876L64.8561 119.991ZM65.6716 116.936L66.5339 116.834C66.7688 116.806 66.937 116.727 67.0383 116.599C67.1446 116.469 67.1861 116.307 67.163 116.112C67.1398 115.917 67.0636 115.767 66.9343 115.66C66.8101 115.554 66.6255 115.515 66.3806 115.544L65.5183 115.646L65.6716 116.936ZM70.0405 119.375C69.9855 119.381 69.9385 119.369 69.8993 119.338C69.8596 119.302 69.8367 119.26 69.8308 119.21L69.2513 114.336C69.2448 114.281 69.257 114.234 69.2878 114.194C69.3186 114.155 69.3615 114.132 69.4165 114.126L70.4213 114.006C70.4763 114 70.5234 114.012 70.5625 114.043C70.6067 114.073 70.632 114.116 70.6385 114.171L71.218 119.045C71.2239 119.095 71.2093 119.142 71.174 119.187C71.1432 119.226 71.1003 119.249 71.0453 119.255L70.0405 119.375ZM71.9842 119.144C71.9442 119.148 71.905 119.138 71.8664 119.112C71.8323 119.081 71.8128 119.045 71.808 119.005C71.8051 118.98 71.8049 118.957 71.8075 118.937L72.9973 113.913C73.0058 113.856 73.0301 113.805 73.0704 113.76C73.115 113.709 73.1798 113.678 73.2648 113.668L74.3746 113.536C74.4596 113.526 74.5272 113.541 74.5776 113.581C74.6323 113.615 74.6704 113.658 74.692 113.712L77.0189 118.317C77.0313 118.336 77.0389 118.358 77.0419 118.383C77.0467 118.423 77.0336 118.462 77.0028 118.501C76.9764 118.535 76.9406 118.554 76.8957 118.56L75.9734 118.669C75.8984 118.678 75.8388 118.668 75.7947 118.637C75.7549 118.602 75.7283 118.569 75.7147 118.54L75.3313 117.81L73.3293 118.048L73.1353 118.847C73.1288 118.878 73.1105 118.916 73.0802 118.96C73.0494 118.999 72.9915 119.024 72.9065 119.034L71.9842 119.144ZM73.5083 116.932L74.903 116.766L73.9703 114.87L73.5083 116.932ZM77.8391 118.448C77.7841 118.454 77.737 118.442 77.6979 118.411C77.6582 118.375 77.6353 118.332 77.6294 118.282L77.0499 113.409C77.0434 113.354 77.0555 113.306 77.0864 113.267C77.1172 113.228 77.1601 113.205 77.2151 113.199L78.2049 113.081C78.2599 113.075 78.307 113.087 78.3461 113.118C78.3853 113.148 78.4081 113.191 78.4146 113.246L78.8817 117.175L81.1537 116.905C81.2087 116.899 81.2561 116.913 81.2959 116.949C81.335 116.98 81.3578 117.023 81.3644 117.078L81.4535 117.828C81.4595 117.878 81.4473 117.925 81.4171 117.969C81.3863 118.008 81.3433 118.031 81.2884 118.038L77.8391 118.448Z" fill="white"/>
<defs>
<linearGradient id="paint0_linear_6283_21554" x1="42.4123" y1="83.9038" x2="36.3404" y2="25.6502" gradientUnits="userSpaceOnUse">
<stop stop-color="#44262A"/>
<stop offset="0.11" stop-color="#4A282B"/>
<stop offset="0.25" stop-color="#5B302C"/>
<stop offset="0.41" stop-color="#763B2E"/>
<stop offset="0.5" stop-color="#824330"/>
<stop offset="1" stop-color="#E77D61"/>
</linearGradient>
<linearGradient id="paint1_linear_6283_21554" x1="43.8427" y1="63.6042" x2="31.8118" y2="33.0857" gradientUnits="userSpaceOnUse">
<stop stop-color="#44262A"/>
<stop offset="0.11" stop-color="#4A282B"/>
<stop offset="0.25" stop-color="#5B302C"/>
<stop offset="0.41" stop-color="#763B2E"/>
<stop offset="0.5" stop-color="#824330"/>
<stop offset="1" stop-color="#E77D61"/>
</linearGradient>
<linearGradient id="paint2_linear_6283_21554" x1="81.8118" y1="91.1096" x2="118.786" y2="13.2678" gradientUnits="userSpaceOnUse">
<stop stop-color="#44262A"/>
<stop offset="0.11" stop-color="#4A282B"/>
<stop offset="0.25" stop-color="#5B302C"/>
<stop offset="0.41" stop-color="#763B2E"/>
<stop offset="0.5" stop-color="#824330"/>
<stop offset="1" stop-color="#E77D61"/>
</linearGradient>
<linearGradient id="paint3_linear_6283_21554" x1="92.0829" y1="99.3678" x2="104.368" y2="129.83" gradientUnits="userSpaceOnUse">
<stop stop-color="#FFA848"/>
<stop offset="0.39" stop-color="#FF954C"/>
<stop offset="0.59" stop-color="#FF6C56"/>
<stop offset="1" stop-color="#FF2A64"/>
</linearGradient>
<linearGradient id="paint4_linear_6283_21554" x1="101.739" y1="94.1296" x2="96.031" y2="118.201" gradientUnits="userSpaceOnUse">
<stop stop-color="#FFA848"/>
<stop offset="0.39" stop-color="#FF954C"/>
<stop offset="0.59" stop-color="#FF6C56"/>
<stop offset="1" stop-color="#FF2A64"/>
</linearGradient>
<linearGradient id="paint5_linear_6283_21554" x1="89.4441" y1="131.174" x2="97.7805" y2="103.351" gradientUnits="userSpaceOnUse">
<stop stop-color="#386E98"/>
<stop offset="1" stop-color="white"/>
</linearGradient>
<linearGradient id="paint6_linear_6283_21554" x1="85.6649" y1="151.698" x2="84.4668" y2="54.899" gradientUnits="userSpaceOnUse">
<stop stop-color="#03192E"/>
<stop offset="0.5" stop-color="#223C6A"/>
<stop offset="1" stop-color="#4A7498"/>
</linearGradient>
<linearGradient id="paint7_linear_6283_21554" x1="75.8547" y1="40.8828" x2="101.665" y2="117.13" gradientUnits="userSpaceOnUse">
<stop stop-color="#44262A"/>
<stop offset="0.11" stop-color="#4A282B"/>
<stop offset="0.25" stop-color="#5B302C"/>
<stop offset="0.41" stop-color="#763B2E"/>
<stop offset="0.5" stop-color="#824330"/>
<stop offset="1" stop-color="#E77D61"/>
</linearGradient>
<linearGradient id="paint8_linear_6283_21554" x1="68.0126" y1="58.3061" x2="183.462" y2="-74.8943" gradientUnits="userSpaceOnUse">
<stop stop-color="#FFA848"/>
<stop offset="0.39" stop-color="#FF954C"/>
<stop offset="0.59" stop-color="#FF6C56"/>
<stop offset="1" stop-color="#FF2A64"/>
</linearGradient>
<linearGradient id="paint9_linear_6283_21554" x1="83.7251" y1="2.29965" x2="96.0423" y2="77.859" gradientUnits="userSpaceOnUse">
<stop stop-color="#FFA848"/>
<stop offset="0.39" stop-color="#FF954C"/>
<stop offset="0.59" stop-color="#FF6C56"/>
<stop offset="1" stop-color="#FF2A64"/>
</linearGradient>
<linearGradient id="paint10_linear_6283_21554" x1="103.059" y1="-0.860468" x2="103.954" y2="37.8117" gradientUnits="userSpaceOnUse">
<stop stop-color="#FFA848"/>
<stop offset="0.39" stop-color="#FF954C"/>
<stop offset="0.59" stop-color="#FF6C56"/>
<stop offset="1" stop-color="#FF2A64"/>
</linearGradient>
<linearGradient id="paint11_linear_6283_21554" x1="56.079" y1="53.9541" x2="98.5538" y2="23.4076" gradientUnits="userSpaceOnUse">
<stop stop-color="#FFA848"/>
<stop offset="0.39" stop-color="#FF954C"/>
<stop offset="0.59" stop-color="#FF6C56"/>
<stop offset="1" stop-color="#FF2A64"/>
</linearGradient>
<linearGradient id="paint12_linear_6283_21554" x1="42.2985" y1="56.0373" x2="42.346" y2="36.7669" gradientUnits="userSpaceOnUse">
<stop stop-color="#44262A"/>
<stop offset="0.11" stop-color="#4A282B"/>
<stop offset="0.25" stop-color="#5B302C"/>
<stop offset="0.41" stop-color="#763B2E"/>
<stop offset="0.5" stop-color="#824330"/>
<stop offset="1" stop-color="#E77D61"/>
</linearGradient>
<linearGradient id="paint13_linear_6283_21554" x1="45.6146" y1="59.7665" x2="44.798" y2="39.4714" gradientUnits="userSpaceOnUse">
<stop stop-color="#44262A"/>
<stop offset="0.11" stop-color="#4A282B"/>
<stop offset="0.25" stop-color="#5B302C"/>
<stop offset="0.41" stop-color="#763B2E"/>
<stop offset="0.5" stop-color="#824330"/>
<stop offset="1" stop-color="#E77D61"/>
</linearGradient>
<linearGradient id="paint14_linear_6283_21554" x1="47.3428" y1="66.8914" x2="47.661" y2="38.1816" gradientUnits="userSpaceOnUse">
<stop stop-color="#44262A"/>
<stop offset="0.11" stop-color="#4A282B"/>
<stop offset="0.25" stop-color="#5B302C"/>
<stop offset="0.41" stop-color="#763B2E"/>
<stop offset="0.5" stop-color="#824330"/>
<stop offset="1" stop-color="#E77D61"/>
</linearGradient>
<linearGradient id="paint15_linear_6283_21554" x1="57.9337" y1="194.556" x2="57.0933" y2="84.0228" gradientUnits="userSpaceOnUse">
<stop stop-color="#03192E"/>
<stop offset="0.5" stop-color="#223C6A"/>
<stop offset="1" stop-color="#4A7498"/>
</linearGradient>
<linearGradient id="paint16_linear_6283_21554" x1="61.7743" y1="129.362" x2="60.932" y2="61.2673" gradientUnits="userSpaceOnUse">
<stop stop-color="#03192E"/>
<stop offset="0.5" stop-color="#223C6A"/>
<stop offset="1" stop-color="#4A7498"/>
</linearGradient>
<linearGradient id="paint17_linear_6283_21554" x1="60.4271" y1="112.139" x2="63.7857" y2="55.1994" gradientUnits="userSpaceOnUse">
<stop stop-color="#386E98"/>
<stop offset="1" stop-color="white"/>
</linearGradient>
<linearGradient id="paint18_linear_6283_21554" x1="62.2124" y1="108.223" x2="75.6625" y2="84.8106" gradientUnits="userSpaceOnUse">
<stop stop-color="#03192E"/>
<stop offset="0.5" stop-color="#223C6A"/>
<stop offset="1" stop-color="#4A7498"/>
</linearGradient>
<linearGradient id="paint19_linear_6283_21554" x1="61.0507" y1="94.5277" x2="67.0374" y2="82.1251" gradientUnits="userSpaceOnUse">
<stop stop-color="#03192E"/>
<stop offset="0.5" stop-color="#223C6A"/>
<stop offset="1" stop-color="#4A7498"/>
</linearGradient>
<linearGradient id="paint20_linear_6283_21554" x1="56.5949" y1="118.082" x2="57.471" y2="70.2509" gradientUnits="userSpaceOnUse">
<stop stop-color="#386E98"/>
<stop offset="1" stop-color="white"/>
</linearGradient>
<linearGradient id="paint21_linear_6283_21554" x1="58.9641" y1="62.9577" x2="58.9641" y2="94.7912" gradientUnits="userSpaceOnUse">
<stop stop-color="#FFA848"/>
<stop offset="0.39" stop-color="#FF954C"/>
<stop offset="0.59" stop-color="#FF6C56"/>
<stop offset="1" stop-color="#FF2A64"/>
</linearGradient>
<linearGradient id="paint22_linear_6283_21554" x1="61.9253" y1="48.6946" x2="58.6302" y2="79.1228" gradientUnits="userSpaceOnUse">
<stop stop-color="#FFA848"/>
<stop offset="0.39" stop-color="#FF954C"/>
<stop offset="0.59" stop-color="#FF6C56"/>
<stop offset="1" stop-color="#FF2A64"/>
</linearGradient>
<linearGradient id="paint23_linear_6283_21554" x1="66.8855" y1="136.965" x2="67.7278" y2="20.3935" gradientUnits="userSpaceOnUse">
<stop stop-color="#44262A"/>
<stop offset="0.11" stop-color="#4A282B"/>
<stop offset="0.25" stop-color="#5B302C"/>
<stop offset="0.41" stop-color="#763B2E"/>
<stop offset="0.5" stop-color="#824330"/>
<stop offset="1" stop-color="#E77D61"/>
</linearGradient>
<linearGradient id="paint24_linear_6283_21554" x1="57.5733" y1="47.821" x2="67.4974" y2="35.2529" gradientUnits="userSpaceOnUse">
<stop stop-color="#44262A"/>
<stop offset="0.11" stop-color="#4A282B"/>
<stop offset="0.25" stop-color="#5B302C"/>
<stop offset="0.41" stop-color="#763B2E"/>
<stop offset="0.5" stop-color="#824330"/>
<stop offset="1" stop-color="#E77D61"/>
</linearGradient>
<linearGradient id="paint25_linear_6283_21554" x1="60.7373" y1="39.4983" x2="77.3607" y2="18.4471" gradientUnits="userSpaceOnUse">
<stop stop-color="#44262A"/>
<stop offset="0.11" stop-color="#4A282B"/>
<stop offset="0.25" stop-color="#5B302C"/>
<stop offset="0.41" stop-color="#763B2E"/>
<stop offset="0.5" stop-color="#824330"/>
<stop offset="1" stop-color="#E77D61"/>
</linearGradient>
<linearGradient id="paint26_linear_6283_21554" x1="67.9804" y1="49.5652" x2="56.8504" y2="93.4213" gradientUnits="userSpaceOnUse">
<stop stop-color="#FFA848"/>
<stop offset="0.39" stop-color="#FF954C"/>
<stop offset="0.59" stop-color="#FF6C56"/>
<stop offset="1" stop-color="#FF2A64"/>
</linearGradient>
<linearGradient id="paint27_linear_6283_21554" x1="58.4655" y1="57.98" x2="60.8776" y2="50.5722" gradientUnits="userSpaceOnUse">
<stop stop-color="#03192E"/>
<stop offset="0.5" stop-color="#223C6A"/>
<stop offset="1" stop-color="#4A7498"/>
</linearGradient>
<linearGradient id="paint28_linear_6283_21554" x1="72.2836" y1="62.6812" x2="74.6006" y2="55.5676" gradientUnits="userSpaceOnUse">
<stop stop-color="#03192E"/>
<stop offset="0.5" stop-color="#223C6A"/>
<stop offset="1" stop-color="#4A7498"/>
</linearGradient>
<linearGradient id="paint29_linear_6283_21554" x1="71.4401" y1="46.0092" x2="66.814" y2="63.3332" gradientUnits="userSpaceOnUse">
<stop stop-color="#FFA848"/>
<stop offset="0.39" stop-color="#FF954C"/>
<stop offset="0.59" stop-color="#FF6C56"/>
<stop offset="1" stop-color="#FF2A64"/>
</linearGradient>
<linearGradient id="paint30_linear_6283_21554" x1="68.7283" y1="47.1391" x2="63.2579" y2="66.9783" gradientUnits="userSpaceOnUse">
<stop stop-color="#FFA848"/>
<stop offset="0.39" stop-color="#FF954C"/>
<stop offset="0.59" stop-color="#FF6C56"/>
<stop offset="1" stop-color="#FF2A64"/>
</linearGradient>
<linearGradient id="paint31_linear_6283_21554" x1="63.3226" y1="59.7913" x2="61.9583" y2="-116.474" gradientUnits="userSpaceOnUse">
<stop stop-color="#FFA848"/>
<stop offset="0.39" stop-color="#FF954C"/>
<stop offset="0.59" stop-color="#FF6C56"/>
<stop offset="1" stop-color="#FF2A64"/>
</linearGradient>
<linearGradient id="paint32_linear_6283_21554" x1="38.1077" y1="7.37112" x2="97.2812" y2="55.9458" gradientUnits="userSpaceOnUse">
<stop stop-color="#FFA848"/>
<stop offset="0.39" stop-color="#FF954C"/>
<stop offset="0.59" stop-color="#FF6C56"/>
<stop offset="1" stop-color="#FF2A64"/>
</linearGradient>
<linearGradient id="paint33_linear_6283_21554" x1="50.5308" y1="-7.77532" x2="76.7571" y2="20.6592" gradientUnits="userSpaceOnUse">
<stop stop-color="#FFA848"/>
<stop offset="0.39" stop-color="#FF954C"/>
<stop offset="0.59" stop-color="#FF6C56"/>
<stop offset="1" stop-color="#FF2A64"/>
</linearGradient>
<linearGradient id="paint34_linear_6283_21554" x1="51.4898" y1="64.4102" x2="63.1856" y2="13.416" gradientUnits="userSpaceOnUse">
<stop stop-color="#FFA848"/>
<stop offset="0.39" stop-color="#FF954C"/>
<stop offset="0.59" stop-color="#FF6C56"/>
<stop offset="1" stop-color="#FF2A64"/>
</linearGradient>
<linearGradient id="paint35_linear_6283_21554" x1="48.8721" y1="165.679" x2="22.4518" y2="64.6884" gradientUnits="userSpaceOnUse">
<stop stop-color="#03192E"/>
<stop offset="0.5" stop-color="#223C6A"/>
<stop offset="1" stop-color="#4A7498"/>
</linearGradient>
<linearGradient id="paint36_linear_6283_21554" x1="32.8165" y1="133.241" x2="31.1733" y2="118.287" gradientUnits="userSpaceOnUse">
<stop stop-color="#386E98"/>
<stop offset="1" stop-color="white"/>
</linearGradient>
<linearGradient id="paint37_linear_6283_21554" x1="15.4766" y1="97.3255" x2="28.0328" y2="121.043" gradientUnits="userSpaceOnUse">
<stop stop-color="#A8003F"/>
<stop offset="0.47" stop-color="#DE1757"/>
<stop offset="1" stop-color="#FF6C56"/>
</linearGradient>
<linearGradient id="paint38_linear_6283_21554" x1="64.3868" y1="196.611" x2="57.0414" y2="86.808" gradientUnits="userSpaceOnUse">
<stop stop-color="#A8003F"/>
<stop offset="0.47" stop-color="#DE1757"/>
<stop offset="1" stop-color="#FF6C56"/>
</linearGradient>
<linearGradient id="paint39_linear_6283_21554" x1="65.8203" y1="206.39" x2="59.6255" y2="130.96" gradientUnits="userSpaceOnUse">
<stop stop-color="#A8003F"/>
<stop offset="0.47" stop-color="#DE1757"/>
<stop offset="1" stop-color="#FF6C56"/>
</linearGradient>
<linearGradient id="paint40_linear_6283_21554" x1="67.1389" y1="206.282" x2="60.9441" y2="130.852" gradientUnits="userSpaceOnUse">
<stop stop-color="#A8003F"/>
<stop offset="0.47" stop-color="#DE1757"/>
<stop offset="1" stop-color="#FF6C56"/>
</linearGradient>
<linearGradient id="paint41_linear_6283_21554" x1="27.4086" y1="99.2071" x2="27.4086" y2="147.757" gradientUnits="userSpaceOnUse">
<stop stop-color="#FFA848"/>
<stop offset="0.39" stop-color="#FF954C"/>
<stop offset="0.59" stop-color="#FF6C56"/>
<stop offset="1" stop-color="#FF2A64"/>
</linearGradient>
<linearGradient id="paint42_linear_6283_21554" x1="29.6106" y1="102.153" x2="29.2568" y2="120.29" gradientUnits="userSpaceOnUse">
<stop stop-color="#FFA848"/>
<stop offset="0.39" stop-color="#FF954C"/>
<stop offset="0.59" stop-color="#FF6C56"/>
<stop offset="1" stop-color="#FF2A64"/>
</linearGradient>
<linearGradient id="paint43_linear_6283_21554" x1="28.2177" y1="102.126" x2="27.8639" y2="120.264" gradientUnits="userSpaceOnUse">
<stop stop-color="#FFA848"/>
<stop offset="0.39" stop-color="#FF954C"/>
<stop offset="0.59" stop-color="#FF6C56"/>
<stop offset="1" stop-color="#FF2A64"/>
</linearGradient>
<linearGradient id="paint44_linear_6283_21554" x1="98.2864" y1="89.5948" x2="77.0112" y2="142.783" gradientUnits="userSpaceOnUse">
<stop stop-color="#FFA848"/>
<stop offset="0.39" stop-color="#FF954C"/>
<stop offset="0.59" stop-color="#FF6C56"/>
<stop offset="1" stop-color="#FF2A64"/>
</linearGradient>
<linearGradient id="paint45_linear_6283_21554" x1="91.8841" y1="82.5699" x2="86.0777" y2="99.445" gradientUnits="userSpaceOnUse">
<stop stop-color="#FFA848"/>
<stop offset="0.39" stop-color="#FF954C"/>
<stop offset="0.59" stop-color="#FF6C56"/>
<stop offset="1" stop-color="#FF2A64"/>
</linearGradient>
<linearGradient id="paint46_linear_6283_21554" x1="92.262" y1="82.6996" x2="86.4556" y2="99.5746" gradientUnits="userSpaceOnUse">
<stop stop-color="#FFA848"/>
<stop offset="0.39" stop-color="#FF954C"/>
<stop offset="0.59" stop-color="#FF6C56"/>
<stop offset="1" stop-color="#FF2A64"/>
</linearGradient>
<linearGradient id="paint47_linear_6283_21554" x1="47.4485" y1="87.9875" x2="0.579854" y2="55.7178" gradientUnits="userSpaceOnUse">
<stop stop-color="#A8003F"/>
<stop offset="0.47" stop-color="#DE1757"/>
<stop offset="1" stop-color="#FF6C56"/>
</linearGradient>
<linearGradient id="paint48_linear_6283_21554" x1="68.9033" y1="81.5696" x2="131.893" y2="45.3599" gradientUnits="userSpaceOnUse">
<stop stop-color="#A8003F"/>
<stop offset="0.47" stop-color="#DE1757"/>
<stop offset="1" stop-color="#FF6C56"/>
</linearGradient>
</defs>
</svg>
