<svg width="16" height="17" viewBox="0 0 16 17" fill="none" xmlns="http://www.w3.org/2000/svg">
<path d="M1.33301 7.09345C1.33302 6.35159 1.55807 5.62717 1.97843 5.01589C2.39879 4.40461 2.99469 3.93522 3.68741 3.66972C4.38014 3.40421 5.13711 3.35508 5.85835 3.52881C6.57959 3.70255 7.23116 4.09097 7.72701 4.64278C7.76193 4.68013 7.80415 4.7099 7.85106 4.73025C7.89796 4.7506 7.94854 4.76111 7.99967 4.76111C8.0508 4.76111 8.10139 4.7506 8.14829 4.73025C8.19519 4.7099 8.23742 4.68013 8.27234 4.64278C8.76663 4.08738 9.41835 3.6957 10.1408 3.51985C10.8632 3.34401 11.622 3.39235 12.3163 3.65844C13.0105 3.92453 13.6073 4.39575 14.0271 5.00939C14.4469 5.62302 14.6699 6.34996 14.6663 7.09345C14.6663 8.62012 13.6663 9.76012 12.6663 10.7601L9.00501 14.3021C8.88079 14.4448 8.72763 14.5594 8.55571 14.6383C8.38378 14.7172 8.19704 14.7587 8.00787 14.7599C7.8187 14.7611 7.63144 14.722 7.45853 14.6453C7.28562 14.5685 7.13103 14.4559 7.00501 14.3148L3.33301 10.7601C2.33301 9.76012 1.33301 8.62678 1.33301 7.09345Z" fill="#FFA2A2" stroke="#FFA2A2" stroke-width="1.33333" stroke-linecap="round" stroke-linejoin="round"/>
</svg>
