<svg width="24" height="25" viewBox="0 0 24 25" fill="none" xmlns="http://www.w3.org/2000/svg">
<path d="M11.5248 2.68552C11.5687 2.59698 11.6364 2.52245 11.7203 2.47034C11.8042 2.41824 11.9011 2.39063 11.9998 2.39062C12.0986 2.39062 12.1955 2.41824 12.2794 2.47034C12.3633 2.52245 12.431 2.59698 12.4748 2.68552L14.7848 7.36452C14.937 7.67249 15.1617 7.93893 15.4395 8.14097C15.7173 8.34302 16.04 8.47463 16.3798 8.52452L21.5458 9.28052C21.6437 9.2947 21.7357 9.33599 21.8113 9.39972C21.887 9.46345 21.9433 9.54707 21.9739 9.64113C22.0045 9.73518 22.0081 9.83593 21.9844 9.93195C21.9607 10.028 21.9107 10.1155 21.8398 10.1845L18.1038 13.8225C17.8575 14.0626 17.6731 14.359 17.5667 14.6861C17.4602 15.0133 17.4349 15.3614 17.4928 15.7005L18.3748 20.8405C18.3921 20.9384 18.3816 21.0391 18.3443 21.1312C18.3071 21.2233 18.2448 21.3031 18.1644 21.3615C18.084 21.4199 17.9888 21.4545 17.8897 21.4614C17.7906 21.4683 17.6915 21.4472 17.6038 21.4005L12.9858 18.9725C12.6816 18.8127 12.343 18.7293 11.9993 18.7293C11.6557 18.7293 11.3171 18.8127 11.0128 18.9725L6.39585 21.4005C6.30818 21.4469 6.20924 21.4678 6.1103 21.4608C6.01135 21.4537 5.91636 21.4191 5.83614 21.3607C5.75592 21.3024 5.69368 21.2227 5.6565 21.1307C5.61933 21.0388 5.6087 20.9382 5.62585 20.8405L6.50685 15.7015C6.56504 15.3623 6.53983 15.0139 6.43338 14.6866C6.32694 14.3592 6.14246 14.0627 5.89585 13.8225L2.15985 10.1855C2.08844 10.1166 2.03784 10.0289 2.01381 9.93259C1.98978 9.83627 1.99328 9.73514 2.02393 9.64071C2.05457 9.54628 2.11111 9.46236 2.18712 9.3985C2.26313 9.33464 2.35555 9.29342 2.45385 9.27952L7.61885 8.52452C7.9591 8.47502 8.28224 8.34358 8.56043 8.14151C8.83863 7.93944 9.06355 7.67279 9.21585 7.36452L11.5248 2.68552Z" fill="#FFDF20" stroke="#FFDF20" stroke-width="2" stroke-linecap="round" stroke-linejoin="round"/>
</svg>
