<svg width="24" height="25" viewBox="0 0 24 25" fill="none" xmlns="http://www.w3.org/2000/svg">
<path d="M0 12.5C0 5.87258 5.37258 0.5 12 0.5C18.6274 0.5 24 5.87258 24 12.5C24 19.1274 18.6274 24.5 12 24.5C5.37258 24.5 0 19.1274 0 12.5Z" fill="url(#paint0_linear_139_4908)"/>
<path d="M11.7624 7.64745C11.7843 7.60318 11.8182 7.56591 11.8601 7.53986C11.9021 7.51381 11.9505 7.5 11.9999 7.5C12.0493 7.5 12.0977 7.51381 12.1397 7.53986C12.1817 7.56591 12.2155 7.60318 12.2374 7.64745L13.3924 9.98695C13.4685 10.1409 13.5808 10.2742 13.7197 10.3752C13.8586 10.4762 14.02 10.542 14.1899 10.5669L16.7729 10.9449C16.8219 10.952 16.8678 10.9727 16.9057 11.0045C16.9435 11.0364 16.9716 11.0782 16.9869 11.1253C17.0022 11.1723 17.0041 11.2227 16.9922 11.2707C16.9804 11.3187 16.9553 11.3624 16.9199 11.3969L15.0519 13.2159C14.9287 13.336 14.8366 13.4842 14.7833 13.6478C14.7301 13.8113 14.7175 13.9854 14.7464 14.1549L15.1874 16.7249C15.1961 16.7739 15.1908 16.8242 15.1722 16.8703C15.1536 16.9163 15.1224 16.9563 15.0822 16.9854C15.042 17.0146 14.9944 17.0319 14.9449 17.0354C14.8953 17.0388 14.8458 17.0283 14.8019 17.0049L12.4929 15.7909C12.3408 15.7111 12.1715 15.6693 11.9997 15.6693C11.8278 15.6693 11.6586 15.7111 11.5064 15.7909L9.19792 17.0049C9.15409 17.0282 9.10462 17.0386 9.05515 17.0351C9.00568 17.0316 8.95818 17.0142 8.91807 16.9851C8.87796 16.9559 8.84684 16.916 8.82825 16.8701C8.80966 16.8241 8.80435 16.7738 8.81292 16.7249L9.25342 14.1554C9.28252 13.9858 9.26992 13.8116 9.21669 13.648C9.16347 13.4843 9.07123 13.336 8.94792 13.2159L7.07992 11.3974C7.04422 11.363 7.01892 11.3191 7.0069 11.271C6.99489 11.2228 6.99664 11.1723 7.01196 11.125C7.02728 11.0778 7.05556 11.0359 7.09356 11.0039C7.13157 10.972 7.17778 10.9514 7.22692 10.9444L9.80942 10.5669C9.97955 10.5422 10.1411 10.4765 10.2802 10.3754C10.4193 10.2744 10.5318 10.1411 10.6079 9.98695L11.7624 7.64745Z" fill="white" stroke="white" stroke-linecap="round" stroke-linejoin="round"/>
<defs>
<linearGradient id="paint0_linear_139_4908" x1="0" y1="12.5" x2="24" y2="12.5" gradientUnits="userSpaceOnUse">
<stop stop-color="#FF8904"/>
<stop offset="1" stop-color="#00B8DB"/>
</linearGradient>
</defs>
</svg>
