<svg width="24" height="25" viewBox="0 0 24 25" fill="none" xmlns="http://www.w3.org/2000/svg">
<path d="M0 12.5C0 5.87258 5.37258 0.5 12 0.5C18.6274 0.5 24 5.87258 24 12.5C24 19.1274 18.6274 24.5 12 24.5C5.37258 24.5 0 19.1274 0 12.5Z" fill="url(#paint0_linear_139_4882)"/>
<path d="M7 11.2503C7.00001 10.6939 7.1688 10.1506 7.48407 9.6921C7.79934 9.23364 8.24626 8.88159 8.7658 8.68246C9.28535 8.48333 9.85308 8.44649 10.394 8.57679C10.9349 8.70709 11.4236 8.9984 11.7955 9.41226C11.8217 9.44027 11.8534 9.4626 11.8885 9.47786C11.9237 9.49313 11.9617 9.50101 12 9.50101C12.0383 9.50101 12.0763 9.49313 12.1115 9.47786C12.1466 9.4626 12.1783 9.44027 12.2045 9.41226C12.5752 8.99571 13.064 8.70195 13.6058 8.57006C14.1476 8.43818 14.7167 8.47444 15.2374 8.67401C15.7581 8.87357 16.2057 9.22699 16.5206 9.68722C16.8354 10.1474 17.0027 10.6926 17 11.2503C17 12.3953 16.25 13.2503 15.5 14.0003L12.754 16.6568C12.6608 16.7638 12.546 16.8497 12.417 16.9089C12.2881 16.9681 12.148 16.9992 12.0061 17.0001C11.8643 17.001 11.7238 16.9717 11.5941 16.9141C11.4645 16.8566 11.3485 16.7721 11.254 16.6663L8.5 14.0003C7.75 13.2503 7 12.4003 7 11.2503Z" fill="white" stroke="white" stroke-linecap="round" stroke-linejoin="round"/>
<defs>
<linearGradient id="paint0_linear_139_4882" x1="0" y1="12.5" x2="24" y2="12.5" gradientUnits="userSpaceOnUse">
<stop stop-color="#51A2FF"/>
<stop offset="1" stop-color="#00B8DB"/>
</linearGradient>
</defs>
</svg>
